<?xml version="1.0" encoding="iso-8859-1"?>
<!-- Generator: Adobe Illustrator 16.0.0, SVG Export Plug-In . SVG Version: 6.00 Build 0)  -->
<!DOCTYPE svg PUBLIC "-//W3C//DTD SVG 1.1//EN" "http://www.w3.org/Graphics/SVG/1.1/DTD/svg11.dtd">
<svg xmlns="http://www.w3.org/2000/svg" xmlns:xlink="http://www.w3.org/1999/xlink" version="1.1" id="Capa_1" x="0px" y="0px" width="512px" height="512px" viewBox="0 0 190.621 190.621" style="enable-background:new 0 0 190.621 190.621;" xml:space="preserve">
<g>
	<path d="M73.908,169.828c-3.315-22.193,0.018-45.211-0.349-67.569c-0.434-26.463-2.712-52.912-4.011-79.345   c4.679,0.413,10.091-0.009,12.943-4.122c2.221-3.203,1.226-7.6-0.496-10.764c-1.706-3.136-4.726-6.02-8.415-6.358   c-2.372-0.217-4.128,1.003-5.397,2.742c-0.657-1.797-1.854-3.29-3.915-4.036c-3.667-1.327-7.88,1.118-10.64,3.315   c-3.107,2.474-5.833,6.113-6.145,10.177c-0.345,4.507,3.824,7.601,7.94,8.093c0.749,0.089,1.496,0.148,2.248,0.186   c-5.581,22.248-2.347,46.235-0.573,68.771c2.099,26.663,3.535,53.672,3.735,80.419c-1.742-0.358-3.985,0.195-5.426,0.643   c-1.958,0.606-3.607,1.773-4.74,3.485c-1.931,2.92-1.125,6.809,0.701,9.548c1.871,2.808,5.049,4.903,8.518,4.438   c1.974-0.266,3.495-1.347,4.676-2.802c0.524,1.323,1.443,2.455,2.946,3.182c3.478,1.681,7.79,0.432,10.943-1.403   c3.134-1.823,6.194-5.168,5.795-9.054C83.728,174.331,78.393,171.41,73.908,169.828z M77.043,185.561   c-2.254,1.409-5.283,2.387-7.803,1.57c-2.566-0.831-2.311-4.248-1.685-6.786c0.08-0.284,0.156-0.566,0.224-0.843   c0.502-2.011-2.544-2.852-3.1-0.854c-0.748,2.787-2.022,6.79-5.275,7.478c-1.85,0.392-3.946-1.263-5.041-2.863   c-1.226-1.791-1.853-4.166-0.78-6.093c0.636-1.143,1.861-1.848,3.01-2.376c1.805-0.83,4.461-0.52,5.88-1.942l0.001-0.004   c0.498-0.126,0.919-0.509,0.92-1.178c0.007-26.017-1.292-52.241-3.005-78.199c-1.601-24.262-3.901-48.119-0.686-72.362   c0.082-0.622-0.508-0.921-1.027-0.834c-0.107-0.086-0.234-0.156-0.391-0.193c-3.063-0.732-7.535-2.013-7.526-5.623   c0.008-2.866,2.455-5.775,4.573-7.671c1.193-1.068,2.565-1.949,4.015-2.625c1.155-0.538,2.606-0.818,3.512-0.65   c0.99,0.183,1.685,0.703,2.143,1.817c0.862,2.094,0.67,4.539,0.412,6.729c-0.216,1.83,2.912,2.248,3.216,0.435   c0.36-2.143,0.865-4.306,2.11-6.121c0.691-1.007,1.647-1.431,2.498-1.448c2.255-0.044,4.569,2.409,5.829,4.556   c1.339,2.282,2.06,5.245,0.719,7.498c-2.171,3.646-8.459,2.95-11.913,2.505c-2.074-0.267-2.047,2.983-0.001,3.249   c-1.04,27.495,2.108,54.987,2.627,82.466c0.23,12.163-0.264,24.314-0.696,36.467c-0.327,9.197-0.752,18.894,1.17,27.993   c-0.719,0.722-0.677,2.225,0.597,2.704c0.035,0.013,0.072,0.026,0.107,0.04c0.321,0.549,0.902,0.703,1.432,0.537   c3.286,1.252,7.329,3.069,7.978,6.658C81.514,181.959,79.009,184.331,77.043,185.561z" fill="#333333"/>
	<path d="M109.28,12.612c1.632-5.949-2.779-11.809-9.162-11.905c-2.879-0.043-5.674,1.278-7.274,3.686   c-1.58,2.378-1.193,5.304-0.22,7.885c-3.393,0.42-7.098,1.654-7.844,5.273c-0.751,3.65,2.01,7.192,4.605,9.403   c2.791,2.378,6.583,4.04,10.295,3.492c3.794-0.56,5.172-4.231,5.38-7.633c0.103,0.081,0.215,0.157,0.359,0.209   c17.533,6.253,22.403,24.521,21.246,41.563c-1.297,19.1-14.369,29.744-32.108,32.871c-0.018-2.714-0.74-5.374-3.02-7.108   c-2.069-1.573-5.042-1.066-7.143,0.117c-2.268,1.278-3.712,3.659-3.887,6.232c-0.19,2.791,1.602,5.082,3.713,6.759   c-2.235,1.943-4.051,4.451-3.802,7.553c0.252,3.139,2.629,5.611,5.352,6.927c6.656,3.212,13.838-0.998,14.087-8.188   c9.626,1.399,21.564-7.067,27.353-13.149c8.891-9.342,14.026-22.449,15.542-35.121C145.402,39.342,135.152,11.112,109.28,12.612z    M139.015,62.286c-1.585,11.199-6.178,22.187-13.504,30.835c-3.668,4.33-8.246,7.792-13.298,10.343   c-4.242,2.143-8.995,2.214-13.341,3.503c-0.634-0.239-1.406-0.016-1.806,0.637c-0.22,0.089-0.447,0.157-0.665,0.256   c-0.348,0.158-0.349,0.762,0,0.92c0.111,0.05,0.228,0.074,0.34,0.121c-0.296,2.472-0.689,4.92-3.022,6.329   c-1.874,1.133-4.25,0.824-6.198,0.087c-1.849-0.701-3.495-2.237-3.957-4.188c-0.636-2.684,2.112-5.068,4.014-6.41   c0.939-0.662,1.052-2.031,0-2.671c-3.467-2.105-5.831-6.183-1.669-8.99c1.171-0.79,2.714-1.153,4.012-0.466   c2.171,1.148,2.294,4.589,2.353,6.679c0.016,0.562,0.335,0.893,0.726,1.012c0.379,0.448,0.942,0.753,1.659,0.645   c20.237-3.068,33.312-15.635,35.312-36.34c1.665-17.231-4.892-39.544-23.948-43.746c-0.402-0.089-0.724,0.015-0.962,0.207   c-0.124-1.225-1.893-1.194-1.983,0.061c-0.187,2.575-0.829,6.331-4.019,6.599c-2.676,0.224-5.288-1.562-7.237-3.189   c-1.679-1.401-3.724-3.526-3.785-5.86c-0.077-2.95,5.007-3.242,6.989-3.343c1.23-0.062,1.996-1.319,1.392-2.426   c-1.129-2.071-2.125-4.673-0.83-6.893c0.897-1.538,2.87-2.093,4.531-2.131c1.951-0.045,3.791,0.762,5.084,2.209   c1.743,1.95,1.188,4.531,0.834,6.871c-1.827,0.345-1.272,3.203,0.507,3.246c11.508,0.277,20.934,2.943,27.367,13.205   C139.903,38.956,140.554,51.408,139.015,62.286z" fill="#333333"/>
</g>
<g>
</g>
<g>
</g>
<g>
</g>
<g>
</g>
<g>
</g>
<g>
</g>
<g>
</g>
<g>
</g>
<g>
</g>
<g>
</g>
<g>
</g>
<g>
</g>
<g>
</g>
<g>
</g>
<g>
</g>
</svg>
