<?xml version="1.0" encoding="iso-8859-1"?>
<!-- Generator: Adobe Illustrator 16.0.0, SVG Export Plug-In . SVG Version: 6.00 Build 0)  -->
<!DOCTYPE svg PUBLIC "-//W3C//DTD SVG 1.1//EN" "http://www.w3.org/Graphics/SVG/1.1/DTD/svg11.dtd">
<svg xmlns="http://www.w3.org/2000/svg" xmlns:xlink="http://www.w3.org/1999/xlink" version="1.1" id="Capa_1" x="0px" y="0px" width="512px" height="512px" viewBox="0 0 188.419 188.419" style="enable-background:new 0 0 188.419 188.419;" xml:space="preserve">
<g>
	<path d="M64.921,169.062c-0.077-0.015-0.139,0.003-0.213-0.003c1.41-24.492-0.603-49.364-1.649-73.826   c-1.08-25.244-1.82-50.468-1.904-75.734c2.889,1.085,6.214,1.232,8.342-1.375c2.288-2.803,2.228-6.947,1.29-10.26   c-0.932-3.29-3.289-6.795-6.909-7.359c-3.831-0.597-7.198,1.923-9.725,4.853c-0.44-2.117-1.376-4.048-3.623-4.685   c-2.914-0.827-5.834,1.66-7.449,3.79c-1.929,2.544-3.265,5.99-2.545,9.205c0.833,3.719,4.507,5.537,8.028,5.769   c-1.687,29.605-0.736,59.833,1.022,89.432c0.746,12.561,1.492,25.124,2.048,37.694c0.264,5.974,1.103,12.885,0.718,19.021   c-4.666,0.689-9.322,2.724-11.403,7.229c-1.626,3.522-1.206,7.687,0.756,10.982c1.802,3.027,4.923,5.064,8.502,4.543   c2.413-0.353,4.134-2.066,5.367-4.188c0.713,1.606,1.873,2.938,3.713,3.639c3.2,1.219,6.867-0.207,9.452-2.156   c2.691-2.029,5.064-5.168,4.875-8.702C73.377,172.517,68.827,169.822,64.921,169.062z M66.816,182.911   c-1.702,1.27-4.028,2.361-6.18,1.762c-2.912-0.812-2.749-5.287-2.58-7.56c0.147-1.974-2.926-2.324-3.4-0.461   c-0.71,2.792-1.905,7.285-5.204,8.05c-1.807,0.418-3.697-1.523-4.63-3.058c-1.392-2.289-1.702-5.02-0.794-7.536   c1.209-3.348,4.87-5.162,8.114-6.275c-0.011,0.092-0.014,0.188-0.026,0.281c-0.011,0.082,0.084,0.129,0.151,0.114   c0.499-0.103,0.897-0.42,1.224-0.874c0.371-0.206,0.546-0.615,0.521-1.012c1.363-3.555,0.52-10.982,0.502-12.82   c-0.124-13.265-0.967-26.52-1.722-39.76c-1.812-31.768,0.028-63.657-1.847-95.365c-0.058-0.977-0.985-1.307-1.653-1.012   c-0.017-0.006-0.028-0.017-0.045-0.022c-2.294-0.624-5.372-1.565-5.721-4.355c-0.286-2.281,0.622-4.396,1.908-6.235   c0.927-1.326,2.592-3.012,4.135-3.016c1.715-0.004,2.009,4.119,1.941,5.641c-0.075,1.689,2.034,1.895,2.876,0.779   c2.049-2.717,4.949-6.885,8.862-6.591c2.324,0.175,3.77,2.954,4.386,4.896c0.721,2.273,0.917,5.131-0.398,7.173   c-1.392,2.16-4.595,0.75-6.736-0.437c-1.707-0.946-3.22,1.061-2.456,2.424c-0.688,24.884,0.472,49.805,1.566,74.661   c1.159,26.322,1.345,52.807,3.191,79.083c0.056,0.794,0.849,1.024,1.357,0.713c2.4,0.887,6.012,1.983,6.162,5.076   C70.43,179.472,68.535,181.628,66.816,182.911z" fill="#02a302"/>
	<path d="M123.393,23.735c-6.551-10.012-17.868-14.455-29.294-13.047c0.328-3.431,0.009-7.216-2.896-9.436   c-2.46-1.88-5.808-1.393-8.431-0.172c-2.572,1.197-4.796,3.641-5.145,6.517c-0.266,2.193,0.774,3.922,2.294,5.23   c-2.833,0.897-5.468,2.466-6.192,5.521c-0.764,3.222,1.205,6.443,3.57,8.465c2.383,2.038,5.858,3.446,8.972,2.346   c3.713-1.312,4.481-5.59,4.38-9.111c0.013-0.001,0.022,0.005,0.035,0.003c14.647-1.666,23.544,10.511,24.179,24.053   c0.784,16.765-11.937,26.838-27.534,27.255c0.65-3.734-0.563-8.133-4.299-9.565c-3.314-1.271-7.245,0.692-9.8,2.704   c-2.51,1.976-4.862,5.294-4.008,8.641c0.775,3.038,3.731,4.233,6.768,4.695c-1.481,1.427-2.543,3.2-2.646,5.414   c-0.142,3.061,2.035,5.736,4.438,7.346c2.352,1.576,5.556,2.156,8.13,0.81c2.765-1.446,3.286-4.665,3.121-7.575   c4.566,0.973,11.692-2.077,14.357-3.606c9.501-5.453,17.885-14.787,23.182-24.304C132.117,45.956,129.326,32.801,123.393,23.735z    M122.204,56.343c-4.012,6.714-9.737,12.544-15.736,17.495c-3.205,2.645-6.781,4.916-10.71,6.3   c-4.081,1.437-6.094-0.492-9.801-1.032c-0.521-0.076-0.938,0.287-0.831,0.831c0.16,0.812,0.468,1.451,0.852,1.996   c-0.012,0.093-0.044,0.176-0.034,0.278c0.193,2.025,0.432,5.217-1.657,6.41c-1.452,0.829-3.5-0.044-4.833-0.884   c-1.45-0.914-2.739-2.497-2.82-4.261c-0.128-2.778,2.932-4.54,5.058-5.585c1.516-0.745,0.712-3.005-0.822-3.036   c-2.115-0.042-4.347-0.304-6.343-1.037c-1.054-0.387-1.683-1.055-1.856-1.63c-0.169-0.56,0.024-1.343,0.459-2.152   c0.603-1.121,1.464-1.983,2.491-2.836c1.715-1.423,4.305-2.631,6.159-2.219c2.634,0.585,2.482,4.37,2.691,6.955   c-0.886,1-0.448,3.049,1.308,3.09c18.566,0.428,32.554-11.997,32.246-30.922c-0.248-15.218-11.584-28.784-27.559-25.692   c-0.12,0.023-0.218,0.072-0.301,0.135c-0.426-0.172-0.999,0.051-1.05,0.669c-0.225,2.691-0.919,6.289-3.801,7.104   c-1.798,0.508-4.11-0.628-5.631-1.89c-0.959-0.796-1.613-1.58-2.181-2.627c-0.411-0.758-0.625-1.839-0.536-2.39   c0.16-0.994,0.635-1.69,1.562-2.353c1.584-1.133,3.708-1.726,5.616-1.972c1.382-0.178,2.424-2.216,0.807-2.98   c-1.263-0.597-2.488-1.299-3.408-2.368c-0.543-0.631-0.616-1.155-0.544-1.986c-0.015,0.177,0.238-0.725,0.224-0.695   c0.194-0.419,0.546-0.921,0.686-1.086c0.733-0.87,1.395-1.327,2.413-1.873c1.617-0.867,3.52-1.115,4.95-0.224   c2.038,1.271,1.836,5.115,1.481,7.451c-1.459,0.697-0.646,3.225,1.165,2.838C115.649,9.088,134.796,35.265,122.204,56.343z" fill="#02a302"/>
	<path d="M147.311,162.031c-2.177-3.804-8.404-4.734-12.239-2.847c-1.941-10.096-8.192-20.401-13.294-29.03   c-5.676-9.599-12.059-18.968-19.33-27.454c3.054-0.136,6.567-1.271,7.746-4.238c1.004-2.53-0.887-5.345-2.546-7.084   c-3.2-3.357-11.662-7.64-14.42-1.437c-0.471,1.059-0.697,2.22-0.754,3.406c-1.152-0.874-2.502-1.366-4.132-1.062   c-2.615,0.486-4.118,3.429-4.788,5.722c-0.724,2.478-0.849,5.558,0.505,7.852c1.647,2.791,5.206,2.531,7.633,0.981   c0.805-0.515,1.419-1.086,1.931-1.772c11.257,19.539,22.984,37.903,31.61,58.843c-3.635-0.046-7.182,1.302-8.378,5.114   c-1.136,3.623,0.563,7.888,2.736,10.771c2.016,2.676,5.349,5.53,8.96,4.48c2.748-0.798,4.106-3.403,4.795-6.269   c1.257,1.796,2.992,3.062,5.386,2.8c3.809-0.416,6.535-4.049,8.051-7.264C148.429,170.05,149.333,165.563,147.311,162.031z    M143.913,171.866c-1.027,2.288-2.86,5.066-5.273,5.652c-0.708,0.172-1.449-0.117-2.215-0.916c-1.4-1.462-1.952-3.761-2.404-5.66   c-0.449-1.89-3.215-1.395-3.281,0.444c-0.095,2.578-0.26,8.672-3.078,9.659c-0.751,0.263-1.603,0.013-2.519-0.513   c-1.104-0.636-2.058-1.614-2.821-2.624c-1.683-2.227-3.011-5.018-2.812-7.868c0.244-3.491,4.407-4.195,7.172-4.352   c0.473-0.026,0.725-0.317,0.789-0.65c0.408-0.251,0.658-0.718,0.462-1.359c-6.603-21.567-19.806-41.938-33.393-59.719   c-0.048-0.062-0.105-0.104-0.161-0.146c0.011-0.022,0.024-0.041,0.035-0.063c0.19-0.412-0.117-0.899-0.598-0.778   c-1.659,0.418-3.064,1.273-4.689,1.773c-0.592,0.182-0.686,0.204-1.364,0.146c0.315,0.027,0.02-0.03-0.175-0.075   c0.093-0.001-0.371-0.249-0.307-0.159c-0.572-0.48-0.665-0.817-0.873-1.735c-0.094-0.417-0.111-0.582-0.125-1.286   c-0.006-0.304,0.008-0.607,0.028-0.912c0.024-0.369,0.058-0.567,0.07-0.647c0.183-1.152,0.511-2.142,0.922-2.934   c0.256-0.493,0.544-0.882,0.677-1.034c0.475-0.544,0.358-0.438,0.923-0.723c-0.372,0.188,0.154-0.038,0.273-0.067   c0.006-0.001,0.006-0.002,0.011-0.003c0.011-0.001,0.014,0,0.028-0.001c0.075-0.005,0.151,0.001,0.226,0.004   c-0.055,0.011,0.354,0.068,0.452,0.099c0.04,0.012,0.231,0.093,0.535,0.275c1.202,0.724,2.303,2.314,2.987,3.675   c0.857,1.702,3.165,0.434,2.876-1.213c-0.32-1.833-0.736-3.986-0.432-5.663c0.142-0.777,0.25-1.019,0.565-1.526   c0.026-0.042,0.06-0.112,0.34-0.379c-0.023,0.023,0.137-0.101,0.398-0.245c-0.001,0.018,0.43-0.152,0.543-0.179   c0.398-0.095-0.076-0.029,0.479-0.052c0.807-0.033,0.764-0.009,1.566,0.19c1.308,0.324,2.229,0.806,3.463,1.612   c1.028,0.671,1.978,1.516,2.866,2.599c0.107,0.131,0.56,0.817,0.79,1.27c0.185,0.362,0.026-0.016,0.185,0.474   c0.039,0.12,0.068,0.242,0.098,0.365c0.011,0.048,0.019,0.079,0.026,0.106c0,0.013,0,0.029,0.003,0.061   c0.008,0.1-0.024,0.434-0.024,0.513c-0.018,0.065-0.031,0.13-0.051,0.194c-0.004,0.012-0.004,0.014-0.007,0.023   c-0.003,0.007-0.004,0.007-0.008,0.016c-0.188,0.385-0.349,0.509-0.811,0.784c-1.307,0.781-3.274,0.823-4.966,1.028   c-1.165,0.142-1.695,1.129-1.582,2c-0.205,0.272-0.272,0.633-0.035,0.968c6.796,9.603,13.346,19.305,19.205,29.517   c5.509,9.603,9.433,19.574,14.018,29.575c0.342,0.746,1.016,0.804,1.562,0.508c0.117,0.044,0.24,0.081,0.376,0.095   c3.147,0.329,7.653-1.548,9.645,1.898C145.818,166.174,144.942,169.572,143.913,171.866z" fill="#02a302"/>
</g>
<g>
</g>
<g>
</g>
<g>
</g>
<g>
</g>
<g>
</g>
<g>
</g>
<g>
</g>
<g>
</g>
<g>
</g>
<g>
</g>
<g>
</g>
<g>
</g>
<g>
</g>
<g>
</g>
<g>
</g>
</svg>
